<?xml version="1.0" encoding="UTF-8" standalone="no"?>
<!-- Created with Inkscape (http://www.inkscape.org/) -->

<svg
   xmlns:dc="http://purl.org/dc/elements/1.1/"
   xmlns:cc="http://creativecommons.org/ns#"
   xmlns:rdf="http://www.w3.org/1999/02/22-rdf-syntax-ns#"
   xmlns:svg="http://www.w3.org/2000/svg"
   xmlns="http://www.w3.org/2000/svg"
   xmlns:sodipodi="http://sodipodi.sourceforge.net/DTD/sodipodi-0.dtd"
   xmlns:inkscape="http://www.inkscape.org/namespaces/inkscape"
   width="1000"
   height="676.85498"
   id="svg9545"
   version="1.1"
   inkscape:version="0.48.2 r9819"
   sodipodi:docname="A.svg">
  <defs
     id="defs9547" />
  <sodipodi:namedview
     id="base"
     pagecolor="#ffffff"
     bordercolor="#666666"
     borderopacity="1.0"
     inkscape:pageopacity="0.0"
     inkscape:pageshadow="2"
     inkscape:zoom="0.35"
     inkscape:cx="1036.3687"
     inkscape:cy="71.884462"
     inkscape:document-units="px"
     inkscape:current-layer="layer1"
     showgrid="false"
     fit-margin-left="0.5"
     fit-margin-bottom="0.5"
     fit-margin-top="0.5"
     fit-margin-right="0.5"
     inkscape:window-width="1054"
     inkscape:window-height="1033"
     inkscape:window-x="859"
     inkscape:window-y="-10"
     inkscape:window-maximized="0">
    <inkscape:grid
       type="xygrid"
       id="grid9564"
       empspacing="5"
       visible="true"
       enabled="true"
       snapvisiblegridlinesonly="true" />
  </sodipodi:namedview>
  <metadata
     id="metadata9550">
    <rdf:RDF>
      <cc:Work
         rdf:about="">
        <dc:format>image/svg+xml</dc:format>
        <dc:type
           rdf:resource="http://purl.org/dc/dcmitype/StillImage" />
        <dc:title></dc:title>
      </cc:Work>
    </rdf:RDF>
  </metadata>
  <g
     inkscape:label="Layer 1"
     inkscape:groupmode="layer"
     id="layer1"
     transform="translate(-54.5,-278.00723)">
    <path
       style="fill:#106755;fill-opacity:1;stroke:none"
       d="m 108.22449,816.20498 0,-262.72516 -53.22449,0 0,-99.65437 53.22449,0 0,-48.69475 c 0,-71.83689 36.35467,-123.43551 135.85783,-123.43553 l 24.94809,0 29.44334,90.59489 -19.3089,0 c -33.03883,0 -46.37239,17.73421 -46.37239,48.94624 l 0,32.58915 44.165,0 35.6313,99.65437 -79.7963,0 0,262.72516 z"
       id="path9566"
       inkscape:connector-curvature="0"
       sodipodi:nodetypes="ccccccscccccccccc" />
    <path
       style="fill:#106755;fill-opacity:1;stroke:none"
       d="m 309.79811,453.82545 118.33381,0 73.60834,203.5525 73.47686,-203.5525 118.4768,0 -132.9399,369.86171 C 530.38531,914.02791 482.09791,954.36218 409.45248,954.36218 L 375.4794,860.36999 c 31.81651,0 53.53472,-13.39132 66.65935,-38.47235 z"
       id="path9568"
       inkscape:connector-curvature="0"
       sodipodi:nodetypes="cccccccccc" />
    <path
       style="fill:#106755;fill-opacity:1;stroke:none"
       d="m 690.70105,553.47982 35.83352,-99.65437 160.80592,0 0,362.37953 -124.56797,0 0,-262.72516 z"
       id="path9570"
       inkscape:connector-curvature="0"
       sodipodi:nodetypes="ccccccc" />
    <path
       sodipodi:type="arc"
       style="fill:#106755;fill-opacity:1;stroke:none"
       id="path9572"
       sodipodi:cx="736.78571"
       sodipodi:cy="421.11218"
       sodipodi:rx="56.42857"
       sodipodi:ry="56.42857"
       d="m 793.21428,421.11218 c 0,31.16464 -25.26394,56.42857 -56.42857,56.42857 -31.16464,0 -56.42857,-25.26393 -56.42857,-56.42857 0,-31.16464 25.26393,-56.42857 56.42857,-56.42857 31.16463,0 56.42857,25.26393 56.42857,56.42857 z"
       transform="matrix(1.1896478,0,0,1.1896478,-52.67235,-155.33783)" />
    <path
       style="fill:#57b6a5;fill-opacity:1;stroke:none"
       d="m 986.99486,819.60229 c -44.08939,0 -67.26402,-33.58182 -67.26402,-66.69811 0,-39.33112 31.42331,-66.99159 66.99159,-66.99159 32.39137,0 67.27757,26.43667 67.27757,67.27757 0,13.85995 -5.9577,27.71962 -11.5562,44.00608 l -35.0651,94.88196 -20.38384,0 z"
       id="path9574"
       inkscape:connector-curvature="0"
       sodipodi:nodetypes="cccccccc" />
  </g>
</svg>
