<?xml version="1.0" encoding="UTF-8"?>
<!-- Generator: Adobe Illustrator 13.0.0, SVG Export Plug-In  -->
<!DOCTYPE svg PUBLIC "-//W3C//DTD SVG 1.1//EN" "http://www.w3.org/Graphics/SVG/1.1/DTD/svg11.dtd" [
	<!ENTITY ns_flows "http://ns.adobe.com/Flows/1.0/">
]>
<svg version="1.1" xmlns="http://www.w3.org/2000/svg" xmlns:xlink="http://www.w3.org/1999/xlink" xmlns:a="http://ns.adobe.com/AdobeSVGViewerExtensions/3.0/" x="0px" y="0px" width="215px" height="104px" viewBox="-2.437 -2.76 215 104" enable-background="new -2.437 -2.76 215 104" xml:space="preserve">
<defs>
</defs>
<polygon points="1.231,98.261 21.616,98.261 21.651,78.243 34.711,78.243 34.684,98.261 53.398,98.261 53.398,40.343 34.684,40.343 34.711,59.749 21.651,59.749 21.616,40.343 1.231,40.343"/>
<path d="M156.352,98.261V95.8h-9.002V43.036c12.113-0.599,15.666,5.284,17.229,16.279h2.658l-0.928-18.8h-48.75v17.033h1.553  c2.521-10.198,4.811-15.11,17.102-14.69V95.8h-9l0.014,2.481L156.352,98.261z"/>
<polygon points="201.659,42.722 208.775,42.722 208.775,40.579 190.154,40.579 190.154,42.722 199.087,42.722 184.572,82.89 169.982,42.722 178.82,42.722 178.82,40.579 151.609,40.579 151.609,42.722 158.648,42.722 179.159,99.209 181.738,99.209"/>
<path d="M190.029,42.726l9.058,0.124l-14.633,40.004l-14.356-40.176l8.728,0.172l0.125-2.269l-27.339-0.13l-0.118,2.273l7.164,0.124  l20.393,56.396l2.699,0.092c0,0,19.942-56.323,19.998-56.487h7.039l0.118-2.269l-18.745-0.13L190.029,42.726z M199.197,42.761  l-9.043-0.166l0.127-2.016l18.5,0.12l-0.133,2.023l-7.08-0.131L181.62,99.157l-2.461-0.078l-20.394-56.405l-7.156-0.08l0.127-2.016  l27.084,0.12l-0.127,2.023l-8.717-0.131l14.478,40.344L199.197,42.761z"/>
<path d="M113.727,53.93l-14.27,5.988c-2.081-5.527-6.459-9.213-12.522-9.213c-9.901,0-15.047,9.443-15.047,18.269  c0,8.993,5.379,18.121,15.278,18.121c6.529,0,11.521-3.375,12.133-10.056H87.016V65.212h27.666V40.336h-14.158  C106.227,42.924,110.743,47.444,113.727,53.93"/>
<path d="M73.915,40.34H56.514v23.82C57.902,52.817,64.311,44.365,73.915,40.34"/>
<path d="M56.514,73.517v24.752h21.201C66.075,95.124,58.08,86.026,56.514,73.517"/>
<path d="M110.968,88.101c-3.78,5.267-8.839,8.55-14.643,10.16h18.354V81.048C113.822,83.417,112.637,85.765,110.968,88.101"/>
<polygon points="115.566,37.635 0,37.635 55.658,0"/>
</svg>