<?xml version="1.0" encoding="utf-8"?>
<!-- Generator: Adobe Illustrator 18.0.0, SVG Export Plug-In . SVG Version: 6.00 Build 0)  -->
<!DOCTYPE svg PUBLIC "-//W3C//DTD SVG 1.1//EN" "http://www.w3.org/Graphics/SVG/1.1/DTD/svg11.dtd">
<svg version="1.1" id="Layer_1" xmlns="http://www.w3.org/2000/svg" xmlns:xlink="http://www.w3.org/1999/xlink" x="0px" y="0px"
	 viewBox="0 0 200 200" enable-background="new 0 0 200 200" xml:space="preserve">
<g>
	<circle fill="#00A6DE" cx="100.1" cy="99.6" r="86.2"/>
	<path fill="#FFFFFF" d="M100.1,187.9c-48.7,0-88.2-39.6-88.2-88.2c0-48.7,39.6-88.2,88.2-88.2s88.2,39.6,88.2,88.2
		C188.3,148.3,148.7,187.9,100.1,187.9z M100.1,15.4c-46.4,0-84.2,37.8-84.2,84.2c0,46.4,37.8,84.2,84.2,84.2
		c46.4,0,84.2-37.8,84.2-84.2C184.3,53.2,146.5,15.4,100.1,15.4z"/>
</g>
<g>
	<circle fill="#00A6DE" cx="100.1" cy="99.6" r="58"/>
	<path fill="#FFFFFF" d="M100.1,159.6c-33.1,0-60-26.9-60-60s26.9-60,60-60s60,26.9,60,60S133.2,159.6,100.1,159.6z M100.1,43.6
		c-30.9,0-56,25.1-56,56c0,30.9,25.1,56,56,56c30.9,0,56-25.1,56-56C156.1,68.7,131,43.6,100.1,43.6z"/>
</g>
<g>
	<path fill="#FFFFFF" d="M43,54.3l4.5-5.1L42.9,45l1.6-1.8l11.9,10.4l-1.6,1.8l-5.6-4.9l-4.5,5.1l5.6,4.9l-1.6,1.8L36.8,52l1.6-1.8
		L43,54.3z"/>
	<path fill="#FFFFFF" d="M67.5,40.9l-5.8,3.6l0.5,4.2l-2.2,1.4l-2.3-18.4l15.3,10.3L71,43.3L67.5,40.9z M65.5,39.6l-4.8-3.3l0.8,5.9
		L65.5,39.6z"/>
	<path fill="#FFFFFF" d="M83.1,30.3l6.3-1.7l0.1,0.5c0.3,1.2,0.4,2.2,0.4,3.2c0,0.9-0.3,1.8-0.7,2.7c-1,2-2.6,3.2-4.8,3.8
		c-2.1,0.6-4.2,0.3-6.1-0.9c-1.9-1.2-3.2-2.8-3.8-5c-0.6-2.2-0.3-4.3,0.8-6.3c1.1-2,2.8-3.2,5.1-3.8c1.2-0.3,2.4-0.4,3.5-0.1
		c1.1,0.2,2.3,0.8,3.6,1.6l-1.2,2c-1.7-1.3-3.4-1.8-5.3-1.3c-1.6,0.4-2.8,1.3-3.6,2.7c-0.8,1.4-1,2.9-0.6,4.6c0.4,1.7,1.4,3,2.9,3.7
		c1.4,0.7,2.8,0.9,4.1,0.6c1.1-0.3,2.1-0.9,2.8-2c0.7-1,1-2.1,0.8-3.2l-3.8,1L83.1,30.3z"/>
	<path fill="#FFFFFF" d="M106.2,28.5l6.5,0.4l0,0.5c-0.1,1.2-0.3,2.2-0.6,3.1c-0.3,0.8-0.8,1.6-1.5,2.3c-1.6,1.6-3.5,2.2-5.8,2.1
		c-2.2-0.2-4-1.1-5.5-2.8c-1.5-1.7-2.1-3.7-2-5.9c0.2-2.3,1.1-4.2,2.8-5.7c1.7-1.5,3.7-2.2,6-2c1.2,0.1,2.4,0.4,3.4,1
		c1,0.6,1.9,1.5,2.9,2.7l-1.8,1.5c-1.2-1.8-2.7-2.8-4.6-2.9c-1.7-0.1-3.1,0.4-4.3,1.4c-1.2,1.1-1.9,2.4-2,4.1
		c-0.1,1.8,0.4,3.3,1.6,4.5c1.1,1.1,2.4,1.8,3.7,1.9c1.2,0.1,2.3-0.2,3.2-1c1-0.7,1.6-1.6,1.8-2.8l-3.9-0.3L106.2,28.5z"/>
	<path fill="#FFFFFF" d="M127.5,38.4l-6.3-2.5l-3,2.9l-2.4-0.9l13.4-12.9l0.9,18.4l-2.4-0.9L127.5,38.4z M127.4,35.9l-0.2-5.9
		l-4.2,4.1L127.4,35.9z"/>
	<path fill="#FFFFFF" d="M142.8,44.3l-0.1,8.3l-2.3-1.8l0.3-7.9l-0.3-0.3l-3.9,5.2l-1.9-1.4l9.5-12.7l2.2,1.7
		c1.7,1.3,2.6,2.5,2.9,3.7c0.3,1.3,0,2.5-0.8,3.7c-0.7,0.9-1.5,1.5-2.5,1.7C144.7,44.8,143.7,44.7,142.8,44.3z M141.5,41l0.6,0.5
		c1.8,1.4,3.2,1.3,4.3,0c1-1.3,0.6-2.6-1.2-3.9l-0.7-0.5L141.5,41z"/>
	<path fill="#FFFFFF" d="M146.6,56.5l12.5-9.7l2,2.6c1,1.3,1.6,2.4,1.9,3.3c0.4,1,0.5,2,0.4,3.1c-0.2,2.2-1.2,4.1-3.2,5.5
		c-1.9,1.5-4,2-6.2,1.6c-1.1-0.2-2.1-0.6-2.9-1.2c-0.8-0.5-1.6-1.4-2.6-2.7L146.6,56.5z M149.9,57.1l0.7,0.9
		c0.7,0.9,1.3,1.5,1.9,1.9c0.6,0.4,1.3,0.7,2.1,0.8c1.6,0.3,3-0.1,4.4-1.2c1.4-1.1,2.1-2.4,2.3-4c0.1-1.4-0.4-2.9-1.7-4.5l-0.7-0.9
		L149.9,57.1z"/>
</g>
<g>
	<path fill="#FFFFFF" d="M33.2,123.5l2.6,6.2l5.6-2.3l0.9,2.2l-14.4,5.9l-0.9-2.2l6.7-2.8l-2.6-6.2l-6.7,2.8l-0.9-2.2l14.4-5.9
		l0.9,2.2L33.2,123.5z"/>
	<path fill="#FFFFFF" d="M39.4,140.3c1.7-1.4,3.6-2,5.9-1.8c2.2,0.2,4.1,1.2,5.5,2.9c1.4,1.7,2.1,3.7,1.9,5.9
		c-0.2,2.2-1.1,4.1-2.8,5.5c-1.7,1.5-3.7,2.1-5.9,1.9c-2.2-0.2-4.1-1.2-5.6-2.9c-1.3-1.5-1.9-3.4-1.9-5.5
		C36.6,143.9,37.5,141.9,39.4,140.3z M40.9,142.2c-1.3,1.1-2,2.5-2.1,4.1c-0.1,1.6,0.3,3,1.3,4.1c1.1,1.2,2.4,1.9,4,2.1
		c1.6,0.1,3-0.4,4.3-1.4c1.3-1.1,2-2.4,2.1-4c0.1-1.6-0.3-3-1.4-4.2c-1.1-1.2-2.4-1.9-4-2C43.6,140.6,42.2,141.1,40.9,142.2z"/>
	<path fill="#FFFFFF" d="M63.1,153l-4.9,8c-0.7,1.1-1,2.1-1,2.8c0.1,1.1,0.6,2,1.6,2.6c1,0.6,2,0.7,3.1,0.3c0.7-0.3,1.4-1,2.1-2.2
		l4.9-8l2,1.2l-5.3,8.5c-0.9,1.4-2,2.3-3.4,2.6c-1.6,0.4-3.1,0.2-4.5-0.7c-1.4-0.9-2.3-2.1-2.7-3.7c-0.3-1.4,0-2.9,0.8-4.3l5.3-8.5
		L63.1,153z"/>
	<path fill="#FFFFFF" d="M85.5,165.3l-2.2,0.5c-0.2-0.7-0.4-1.2-0.6-1.5c-0.3-0.3-0.6-0.5-1.2-0.7c-0.6-0.2-1.2-0.2-1.7,0.1
		c-0.5,0.2-0.9,0.6-1,1.1c-0.2,0.7,0.2,1.5,1.1,2.2l1.3,1.1c1.1,0.8,1.8,1.7,2.1,2.6c0.4,0.9,0.4,1.8,0.1,2.9
		c-0.4,1.4-1.2,2.4-2.4,3c-1.2,0.6-2.5,0.7-3.8,0.3c-1.3-0.4-2.3-1.1-2.9-2.1c-0.6-1-0.8-2.3-0.6-3.7l2.4,0.2c-0.2,0.9-0.2,1.6,0,2
		c0.3,0.8,0.9,1.3,1.8,1.6c0.7,0.2,1.4,0.1,2-0.2c0.6-0.3,1-0.9,1.2-1.6c0.1-0.3,0.1-0.6,0.1-0.8c0-0.3-0.1-0.5-0.2-0.8
		c-0.1-0.3-0.3-0.5-0.5-0.8c-0.2-0.3-0.5-0.5-0.8-0.8l-1.3-1c-1.8-1.5-2.4-3-2-4.7c0.3-1.1,1-1.9,2.1-2.4c1.1-0.5,2.3-0.6,3.5-0.2
		C83.9,162.1,85,163.4,85.5,165.3z"/>
	<path fill="#FFFFFF" d="M101.4,166.8l-6.2-0.3l-0.2,3.7l6.1,0.3l-0.1,2.2l-6.1-0.3l-0.2,5.2l6.2,0.3l-0.1,2.2l-8.6-0.4l0.7-15.6
		l8.6,0.4L101.4,166.8z"/>
	<path fill="#FFFFFF" d="M111.2,179.4l-3-15.3l2.3-0.4c1-0.2,1.9-0.3,2.5-0.2c0.6,0,1.2,0.2,1.7,0.5c0.5,0.3,0.9,0.7,1.3,1.3
		c0.4,0.5,0.6,1.1,0.7,1.7c0.2,1.1,0,2.1-0.7,3c0.9,0.1,1.6,0.5,2.2,1.1c0.6,0.6,1,1.3,1.2,2.3c0.2,1.2,0,2.3-0.7,3.3
		c-0.4,0.6-0.9,1.1-1.5,1.4c-0.7,0.3-1.5,0.6-2.6,0.8L111.2,179.4z M111.9,170.2l0.7-0.1c0.9-0.2,1.5-0.5,1.8-0.9s0.4-1.1,0.3-1.8
		c-0.1-0.7-0.4-1.2-0.9-1.5c-0.5-0.3-1.1-0.4-1.9-0.2l-0.8,0.2L111.9,170.2z M113.1,176.8l1.4-0.3c1-0.2,1.8-0.6,2.2-1.1
		c0.4-0.5,0.6-1.2,0.4-1.8c-0.1-0.7-0.5-1.2-1.1-1.5c-0.6-0.3-1.5-0.4-2.7-0.2l-1.2,0.2L113.1,176.8z"/>
	<path fill="#FFFFFF" d="M126.5,167.7c-1-1.9-1.2-4-0.5-6.1c0.7-2.1,2-3.7,4-4.8c2-1,4-1.2,6.2-0.5c2.2,0.7,3.7,2,4.8,4
		c1,2,1.2,4,0.5,6.2c-0.7,2.1-2.1,3.7-4.1,4.8c-1.8,0.9-3.7,1.2-5.8,0.7C129.3,171.3,127.6,169.9,126.5,167.7z M128.6,166.6
		c0.8,1.5,2,2.5,3.5,3c1.5,0.5,3,0.3,4.3-0.4c1.5-0.8,2.4-1.9,2.9-3.4c0.5-1.5,0.3-3-0.4-4.5c-0.8-1.5-1.9-2.5-3.4-2.9
		c-1.5-0.5-3-0.4-4.4,0.4c-1.4,0.8-2.4,1.9-2.9,3.4C127.7,163.7,127.8,165.2,128.6,166.6z"/>
	<path fill="#FFFFFF" d="M156.5,151.7l-4.8,4.6l1.4,3.9l-1.8,1.8l-6-17.3l16.9,6.7l-1.8,1.8L156.5,151.7z M154.2,150.8l-5.4-2.2
		l2,5.5L154.2,150.8z"/>
	<path fill="#FFFFFF" d="M157.9,133.6l11.4,7l-1.2,2l-11.4-7l-1.9,3.1l-1.9-1.2l5-8.1l1.9,1.2L157.9,133.6z"/>
	<path fill="#FFFFFF" d="M165.2,116.5l0.5,2.2c-0.7,0.1-1.2,0.3-1.5,0.6c-0.3,0.3-0.6,0.6-0.7,1.1c-0.2,0.6-0.2,1.2,0,1.7
		c0.2,0.5,0.6,0.9,1.1,1c0.7,0.2,1.5-0.1,2.3-1l1.1-1.3c0.9-1,1.8-1.7,2.7-2c0.9-0.3,1.8-0.3,2.9,0c1.4,0.5,2.3,1.3,2.9,2.5
		c0.6,1.2,0.7,2.5,0.2,3.9c-0.4,1.3-1.2,2.2-2.2,2.8c-1,0.6-2.3,0.7-3.7,0.5l0.3-2.4c0.9,0.2,1.6,0.2,2,0.1c0.8-0.2,1.3-0.8,1.6-1.7
		c0.2-0.7,0.2-1.4-0.1-2c-0.3-0.6-0.8-1-1.5-1.3c-0.3-0.1-0.6-0.1-0.8-0.1c-0.3,0-0.5,0.1-0.8,0.2c-0.3,0.1-0.5,0.3-0.8,0.5
		c-0.3,0.2-0.5,0.5-0.8,0.8l-1.1,1.2c-1.5,1.7-3.1,2.3-4.8,1.8c-1.1-0.4-1.9-1.1-2.4-2.2c-0.5-1.1-0.5-2.3-0.1-3.6
		C162,118,163.2,116.9,165.2,116.5z"/>
</g>
<g>
	<path fill="#FFFFFF" d="M157.8,100c0,33-26,58-58.2,58c-28.3,0-51.9-19.9-57.1-46.9c-0.7-3.6-1.1-7.2-1.1-11.2H157.8z"/>
</g>
<g id="XMLID_15_">
	<g>
		<polygon fill="#00A6DE" points="142.9,115.5 134.1,129.1 81.3,134.7 80.8,121.7 80.8,121.6 142.9,115.4 		"/>
		<polygon fill="#00A6DE" points="80.3,121.6 80.1,117.2 141.4,111.6 142.7,111.9 142.9,115.4 80.8,121.6 80.3,121.6 		"/>
		<path fill="#00A6DE" d="M100.7,79l14.5,0.6l0.2,31.2l-14.4,1.1L100.7,79z M108.1,84c-2,0.1-3.5,2.1-3.4,4.4c0.1,2.3,1.8,4.1,3.8,4
			c2-0.1,3.5-2.1,3.4-4.4C111.8,85.6,110.1,83.8,108.1,84z"/>
		<path fill="#00A6DE" d="M104.7,88.4c-0.1-2.3,1.4-4.3,3.4-4.4c2-0.1,3.7,1.7,3.8,4c0.1,2.3-1.4,4.3-3.4,4.4
			C106.6,92.5,104.9,90.7,104.7,88.4z"/>
		<polygon fill="#00A6DE" points="115.1,79.6 100.7,79 100.9,111.8 79.2,113.4 79.3,69.6 131.8,72.3 132.2,109.5 115.3,110.8 		"/>
		<polygon fill="#00A6DE" points="79.2,113.4 79.2,113.4 59.3,103.4 59.4,103.3 59.2,81.5 79,69.6 79.3,69.6 79.2,113.4 		"/>
		<polygon fill="#00A6DE" points="59,103.2 59.3,103.4 79.2,113.4 79.2,113.4 79.2,113.4 100.9,111.8 115.3,110.8 132.2,109.5 
			141.4,111.6 80.1,117.2 59,103.2 		"/>
		<path fill="#00A6DE" d="M59.2,81.5l-1,0.6L58.1,82l15.9-15.2c2.7-0.5,35.7-5.9,62.1,3.7l-4.4,1.8h0l-52.5-2.8v-0.2L79,69.6
			L59.2,81.5z"/>
		<polygon fill="#00A6DE" points="59.1,103.6 59,103.2 80.1,117.2 80.3,121.6 		"/>
		<polygon fill="#00A6DE" points="80.8,121.7 81.3,134.7 81.2,134.7 60.3,112.1 59.1,103.6 80.3,121.6 80.3,121.6 80.3,121.6 
			80.8,121.6 		"/>
	</g>
	<g>
		<polyline fill="none" stroke="#FFFFFF" stroke-width="2" stroke-miterlimit="10" points="79.3,69.4 79.3,69.6 79.2,113.4 
			79.2,113.4 		"/>
		<polyline fill="none" stroke="#FFFFFF" stroke-width="2" stroke-miterlimit="10" points="100.7,78.1 100.7,79 100.9,111.8 
			100.9,111.9 		"/>
		<polyline fill="none" stroke="#FFFFFF" stroke-width="2" stroke-miterlimit="10" points="115.1,78.7 115.1,79.6 115.3,110.8 
			115.3,110.9 		"/>
		<polyline fill="none" stroke="#FFFFFF" stroke-width="2" stroke-miterlimit="10" points="131.8,72.3 131.8,72.3 132.2,109.5 		"/>
		<line fill="none" stroke="#FFFFFF" stroke-width="2" stroke-miterlimit="10" x1="79.2" y1="113.4" x2="78.9" y2="113.4"/>
		<polyline fill="none" stroke="#FFFFFF" stroke-width="2" stroke-miterlimit="10" points="132.2,109.5 115.3,110.8 100.9,111.8 
			79.2,113.4 79.2,113.4 		"/>
		<polyline fill="none" stroke="#FFFFFF" stroke-width="2" stroke-miterlimit="10" points="79.4,113.6 79.2,113.4 79.2,113.4 
			59.3,103.4 59,103.2 58.8,103.1 58.5,103 		"/>
		<polyline fill="none" stroke="#FFFFFF" stroke-width="2" stroke-miterlimit="10" points="79.3,69.4 79,69.6 59.2,81.5 58.2,82.1 
					"/>
		<polyline fill="none" stroke="#FFFFFF" stroke-width="2" stroke-miterlimit="10" points="80.1,117.2 80.3,121.6 80.3,121.6 		"/>
		<polyline fill="none" stroke="#FFFFFF" stroke-width="2" stroke-miterlimit="10" points="80.3,121.6 80.3,121.6 80.8,121.6 
			142.9,115.4 		"/>
		<polyline fill="none" stroke="#FFFFFF" stroke-width="2" stroke-miterlimit="10" points="142.9,115.8 142.9,115.5 142.9,115.4 
			142.7,111.9 142.7,111.2 		"/>
		<polyline fill="none" stroke="#FFFFFF" stroke-width="2" stroke-miterlimit="10" points="141.6,111.6 141.4,111.6 80.1,117.2 		
			"/>
		<polyline fill="none" stroke="#FFFFFF" stroke-width="2" stroke-miterlimit="10" points="143.3,112 142.7,111.9 141.4,111.6 
			132.2,109.5 		"/>
		<polyline fill="none" stroke="#FFFFFF" stroke-width="2" stroke-miterlimit="10" points="80.1,117.2 59,103.2 58.8,103.1 
			58.6,103 		"/>
		<polyline fill="none" stroke="#FFFFFF" stroke-width="2" stroke-miterlimit="10" points="80.6,121.8 80.3,121.6 80.3,121.6 
			59.1,103.6 59,103.6 		"/>
		<path fill="none" stroke="#FFFFFF" stroke-width="2" stroke-miterlimit="10" d="M78.7,69.6l0.3,0l0.3,0l52.5,2.8h0l4.4-1.8
			c-26.4-9.7-59.4-4.2-62.1-3.7c-0.1,0-0.2,0-0.2,0"/>
		<polyline fill="none" stroke="#FFFFFF" stroke-miterlimit="10" points="59.4,103.3 59.2,81.5 59.2,81.5 		"/>
		<polyline fill="none" stroke="#FFFFFF" stroke-width="0.5" stroke-miterlimit="10" points="60.3,112.2 60.3,112.1 59.1,103.6 
			59,103.2 59,103.2 59,103.1 		"/>
		<polyline fill="none" stroke="#FFFFFF" stroke-width="2" stroke-miterlimit="10" points="80.8,121.7 81.3,134.7 81.3,134.9 		"/>
		<polyline fill="none" stroke="#FFFFFF" stroke-miterlimit="10" points="81.3,134.9 81.2,134.7 60.3,112.1 60.3,112 		"/>
		<polyline fill="none" stroke="#FFFFFF" stroke-width="2" stroke-miterlimit="10" points="143,115.3 142.9,115.5 134.1,129.1 
			134,129.2 		"/>
		<polyline fill="none" stroke="#FFFFFF" stroke-miterlimit="10" points="134.3,129.1 134.1,129.1 81.3,134.7 81.2,134.7 
			80.9,134.8 		"/>
		<polyline fill="none" stroke="#FFFFFF" stroke-width="2" stroke-miterlimit="10" points="99.8,79 100.7,79 115.1,79.6 115.9,79.6 
					"/>
		<path fill="none" stroke="#FFFFFF" stroke-width="2" stroke-miterlimit="10" d="M111.9,88c-0.1-2.3-1.8-4.1-3.8-4
			c-2,0.1-3.5,2.1-3.4,4.4c0.1,2.3,1.8,4.1,3.8,4C110.5,92.3,112,90.3,111.9,88z"/>
		<polyline fill="none" stroke="#FFFFFF" stroke-width="2" stroke-miterlimit="10" points="74.3,66.6 74.1,66.8 58.1,82 56.9,83.2 
					"/>
	</g>
</g>
<g>
	<path fill="#FFFFFF" d="M94.1,94H78.4l0.2-16.8l15.4,0.9L94.1,94z M80.4,92h11.6l0-12l-11.5-0.7L80.4,92z"/>
</g>
<g>
	<path fill="#FFFFFF" d="M132.9,94.4L120,94.2v-15l12.8,0.6L132.9,94.4z M122,92.2l8.9,0.1l-0.1-10.6l-8.8-0.4V92.2z"/>
</g>
<g>
	<path fill="none" stroke="#FFFFFF" stroke-miterlimit="10" d="M79.2,78.1"/>
</g>
<g>
	
		<rect x="79.5" y="84.6" transform="matrix(4.607856e-03 1 -1 4.607856e-03 171.3298 -1.3223)" fill="#FFFFFF" width="13.6" height="1.5"/>
</g>
<g>
	<rect x="75" y="80.2" fill="#FFFFFF" width="0.8" height="12.7"/>
</g>
<g>
	
		<rect x="121.3" y="87.1" transform="matrix(0.9991 4.319567e-02 -4.319567e-02 0.9991 3.9011 -5.3887)" fill="#FFFFFF" width="10.6" height="1"/>
</g>
<g>
	<path fill="none" stroke="#FFFFFF" stroke-miterlimit="10" d="M127.1,80.6"/>
</g>
<g>
	
		<rect x="79.4" y="85.5" transform="matrix(0.9998 2.154765e-02 -2.154765e-02 0.9998 1.8774 -1.8375)" fill="#FFFFFF" width="13.6" height="1.5"/>
</g>
<g>
	
		<rect x="75.6" y="83.3" transform="matrix(0.1816 0.9834 -0.9834 0.1816 147.5205 -3.9363)" fill="#FFFFFF" width="1" height="6.7"/>
</g>
<g>
	
		<rect x="72.4" y="80.6" transform="matrix(0.9998 1.855149e-02 -1.855149e-02 0.9998 1.6339 -1.3381)" fill="#FFFFFF" width="1" height="13.5"/>
</g>
<g>
	<polygon fill="#FFFFFF" points="79.6,78.8 73,81.5 72.6,80.6 79.1,77.4 	"/>
</g>
<g>
	<path fill="none" stroke="#FFFFFF" stroke-width="2" stroke-miterlimit="10" d="M132.1,93.8"/>
</g>
<g>
	<polygon fill="#FFFFFF" points="79.5,93.9 72.8,94.1 72.7,93.2 79.3,91.9 	"/>
</g>
<g>
	<rect x="126" y="81" fill="#FFFFFF" width="1" height="12"/>
</g>
</svg>
